<?xml version="1.0" encoding="utf-8"?>
<!-- Generator: Adobe Illustrator 22.0.0, SVG Export Plug-In . SVG Version: 6.00 Build 0)  -->
<svg version="1.1"
	 id="svg3093" xmlns:cc="http://creativecommons.org/ns#" xmlns:dc="http://purl.org/dc/elements/1.1/" xmlns:rdf="http://www.w3.org/1999/02/22-rdf-syntax-ns#" xmlns:svg="http://www.w3.org/2000/svg"
	 xmlns="http://www.w3.org/2000/svg" xmlns:xlink="http://www.w3.org/1999/xlink" x="0px" y="0px" viewBox="0 0 350 350"
	 style="enable-background:new 0 0 350 350;" xml:space="preserve">
<style type="text/css">
	.st0{fill:#FFFFFF;}
</style>
<g id="layer1" transform="translate(-73.44643,-407.97744)">
	<path id="path36" class="st0" d="M153,480.6c-18.5,0-33.6,15.1-33.6,33.6c0,18.5,15.1,33.4,33.6,33.4c18.5,0,33.4-14.8,33.4-33.4
		C186.3,495.7,171.5,480.6,153,480.6z M287,480.6c-18.5,0-33.6,15.1-33.6,33.6c0,18.5,15.1,33.4,33.6,33.4
		c18.5,0,33.4-14.8,33.4-33.4C320.3,495.7,305.5,480.6,287,480.6z"/>
	<path id="path38" class="st0" d="M220,480.6c-18.5,0-33.6,15.1-33.6,33.6c0,18.5,15.1,33.4,33.6,33.4c18.5,0,33.4-14.8,33.4-33.4
		C253.3,495.7,238.5,480.6,220,480.6z M287,547.6c-18.5,0-33.6,15.1-33.6,33.6c0,18.5,15.1,33.4,33.6,33.4
		c18.5,0,33.4-14.9,33.4-33.4C320.3,562.7,305.5,547.6,287,547.6z M220,614.6c-18.5,0-33.6,15.1-33.6,33.6
		c0,18.5,15.1,33.4,33.6,33.4c18.5,0,33.4-14.9,33.4-33.4C253.3,629.7,238.5,614.6,220,614.6z"/>
	<path id="path44" class="st0" d="M354,547.6c-18.5,0-33.6,15.1-33.6,33.6c0,18.5,15.1,33.4,33.6,33.4c18.5,0,33.4-14.9,33.4-33.4
		C387.3,562.7,372.5,547.6,354,547.6L354,547.6z M287,614.6c-18.5,0-33.6,15.1-33.6,33.6c0,18.5,15.1,33.4,33.6,33.4
		c18.5,0,33.4-14.9,33.4-33.4C320.3,629.7,305.5,614.6,287,614.6z"/>
</g>
</svg>
