<?xml version="1.0" encoding="utf-8"?>
<!-- Generator: Adobe Illustrator 22.0.0, SVG Export Plug-In . SVG Version: 6.00 Build 0)  -->
<svg version="1.1" id="Layer_1" xmlns="http://www.w3.org/2000/svg" xmlns:xlink="http://www.w3.org/1999/xlink" x="0px" y="0px"
	 viewBox="0 0 350 350" style="enable-background:new 0 0 350 350;" xml:space="preserve">
<style type="text/css">
	.st0{fill:#FFFFFF;}
</style>
<path class="st0" d="M34.7,243c0.9-1.4,2.2-1.5,4.1-0.3C81.5,267.6,128,280,178.3,280c33.5,0,66.6-6.2,99.3-18.7
	c0.9-0.3,2.1-0.9,3.7-1.5c1.6-0.7,2.8-1.2,3.5-1.5c2.6-1,4.6-0.5,6,1.5c1.5,2.1,1,3.9-1.4,5.6c-3.1,2.2-7,4.8-11.8,7.7
	c-14.7,8.7-31.1,15.5-49.2,20.3c-18.1,4.8-35.8,7.2-53.1,7.2c-26.7,0-51.9-4.7-75.7-14c-23.8-9.3-45.1-22.4-63.9-39.4
	c-1-0.9-1.5-1.7-1.5-2.6C34.2,244.1,34.3,243.6,34.7,243z M111.9,170c0-11.8,2.9-21.9,8.7-30.3c5.8-8.4,13.8-14.7,23.9-19
	c9.2-3.9,20.6-6.8,34.1-8.5c4.6-0.5,12.1-1.2,22.6-2.1v-4.4c0-10.9-1.2-18.3-3.6-22.1c-3.6-5.1-9.2-7.7-16.9-7.7h-2.1
	c-5.6,0.5-10.5,2.3-14.6,5.4c-4.1,3.1-6.8,7.4-8,12.8c-0.7,3.4-2.4,5.4-5.1,5.9l-29.5-3.6c-2.9-0.7-4.4-2.2-4.4-4.6
	c0-0.5,0.1-1.1,0.3-1.8c2.9-15.2,10-26.5,21.4-33.9c11.4-7.4,24.7-11.5,39.9-12.3h6.4c19.5,0,34.7,5,45.7,15.1
	c1.7,1.7,3.3,3.6,4.7,5.5c1.5,2,2.6,3.7,3.5,5.3c0.9,1.5,1.6,3.8,2.3,6.7c0.7,2.9,1.2,4.9,1.5,6c0.3,1.1,0.6,3.5,0.8,7.2
	c0.2,3.7,0.3,5.9,0.3,6.5v62.1c0,4.4,0.6,8.5,1.9,12.2c1.3,3.7,2.5,6.3,3.7,8c1.2,1.6,3.2,4.2,5.9,7.8c1,1.5,1.5,2.9,1.5,4.1
	c0,1.4-0.7,2.6-2.1,3.6c-14.2,12.3-21.9,19-23.1,20c-2.1,1.5-4.5,1.7-7.4,0.5c-2.4-2.1-4.5-4-6.3-5.9c-1.8-1.9-3.1-3.2-3.8-4.1
	s-2-2.5-3.7-5c-1.7-2.5-2.9-4.1-3.6-5c-9.6,10.4-19,16.9-28.2,19.5c-5.8,1.7-13,2.6-21.5,2.6c-13.2,0-24-4.1-32.4-12.2
	S111.9,184.8,111.9,170z M156,164.8c0,6.7,1.7,12,5,16s7.8,6,13.5,6c0.5,0,1.2-0.1,2.2-0.3c0.9-0.2,1.6-0.3,1.9-0.3
	c7.2-1.9,12.7-6.5,16.7-13.8c1.9-3.2,3.3-6.8,4.2-10.6c0.9-3.8,1.5-7,1.5-9.4c0.1-2.4,0.1-6.3,0.1-11.8v-6.4
	c-9.9,0-17.4,0.7-22.6,2.1C163.5,140.6,156,150.1,156,164.8z M263.7,247.4c0.3-0.7,0.9-1.4,1.5-2.1c4.3-2.9,8.4-4.9,12.3-5.9
	c6.5-1.7,12.8-2.7,19-2.8c1.7-0.2,3.3-0.1,4.9,0.3c7.7,0.7,12.3,2,13.8,3.8c0.7,1,1,2.6,1,4.6v1.8c0,6-1.6,13-4.9,21.2
	c-3.2,8.1-7.8,14.7-13.6,19.6c-0.9,0.7-1.6,1-2.3,1c-0.3,0-0.7-0.1-1-0.3c-1-0.5-1.3-1.5-0.8-2.8c6.3-14.9,9.5-25.2,9.5-31
	c0-1.9-0.3-3.2-1-4.1c-1.7-2.1-6.5-3.1-14.4-3.1c-2.9,0-6.3,0.2-10.3,0.5c-4.3,0.5-8.2,1-11.8,1.5c-1,0-1.7-0.2-2.1-0.5
	c-0.3-0.3-0.4-0.7-0.3-1C263.5,248,263.5,247.8,263.7,247.4z"/>
</svg>
