<?xml version="1.0" encoding="utf-8"?>
<!-- Generator: Adobe Illustrator 22.0.0, SVG Export Plug-In . SVG Version: 6.00 Build 0)  -->
<svg version="1.1" id="Layer_1" xmlns="http://www.w3.org/2000/svg" xmlns:xlink="http://www.w3.org/1999/xlink" x="0px" y="0px"
	 viewBox="0 0 350 350" style="enable-background:new 0 0 350 350;" xml:space="preserve">
<style type="text/css">
	.st0{fill:#FFFFFF;}
	.st1{fill:#FFFFFF;stroke:#0E0E0E;stroke-width:6;stroke-miterlimit:10;}
	.st2{fill:#FFFFFF;stroke:#0E0E0E;stroke-width:7;stroke-miterlimit:10;}
</style>
<g>
	<path class="st0" d="M302.9,58.1c0.1-3-0.5-6-1.8-8.7c-3-6.9-10.3-11.5-17.8-11.4c-68.8,0-137.5,0-206.3,0
		c-3.3-0.1-6.8,0.1-9.9,1.5C60,42.3,55,49.7,55.1,57.3c0,6.9,0,13.9,0.1,20.8c2.3-0.9,4.8-1,7.3-1.1c77.8,0,155.6,0,233.4,0
		c2.4,0,4.7,0.2,7,1.1C303,71.5,302.9,64.8,302.9,58.1z M125.6,61.7c-1.8,4-6.6,6.3-10.9,5.2c-0.7-0.2-1.5-0.4-2.1-0.8
		c-2.4-1.2-4.3-3.5-5-6.2c0-0.1,0-0.1-0.1-0.2c-0.1-0.4-0.2-0.8-0.2-1.2c-0.1-0.4-0.1-0.8-0.1-1.2c0,0,0,0,0,0s0,0,0,0
		c-0.1-4.3,3.2-8.3,7.4-9.3c2.1-0.3,4.3-0.4,6.3,0.5c2.9,1.2,4.9,3.9,5.6,6.9c0.1,0.5,0.1,1.1,0.1,1.6
		C126.6,58.7,126.4,60.3,125.6,61.7z M247.8,64.3c-1.7,1.8-4.1,2.8-6.6,2.9c-3.8,0.1-7.6-2.2-9-5.7c-1-1.9-0.8-4-0.7-6.1
		c0.7-3.6,3.7-6.5,7.3-7.4c2.1-0.3,4.4-0.3,6.3,0.6c3.2,1.4,5.4,4.8,5.6,8.3C250.7,59.6,249.8,62.4,247.8,64.3z"/>
	<path class="st0" d="M55.2,78.2c2.3-0.9,4.8-1,7.3-1.1c77.8,0,155.6,0,233.4,0c2.4,0,4.7,0.2,7,1.1c6.7,2.4,12.2,8.7,12.9,15.9
		c-1.4-4.9-4.3-9.5-8.7-12.3c-3.2-2-6.9-3.2-10.7-3.1c-78.1,0.1-156.1,0.1-234.2,0.1c-5.9-0.1-11.8,2.4-15.6,7
		c-1.8,1.9-2.8,4.5-4,6.7C43.8,85.9,48.9,80.4,55.2,78.2"/>
	<path class="st1" d="M226,194.6l0.3,0v0.2c0.1,19.5,0,39,0,58.5c4.9,0,9.8,0,14.7,0c0-19.5,0-39,0-58.5l0-0.2l0.2,0
		c2.2,0.3,4.3,0.1,6.5,0.1c18.4,0,36.8,0,55.2,0c2.1,30.7,4.1,61.5,6.2,92.3c0.2,3.5,0.7,7.1-0.3,10.6l-0.1,0.1
		c-0.9,1-1.4,2.3-2.1,3.4c-3.4,5.6-9.9,9.4-16.5,9.4c-73.4,0-146.7,0-220.1,0c-2.3,0-4.6,0.1-6.9-0.5c-5.1-1.4-9.7-4.7-12.2-9.3
		c-0.5-1-1-2.1-1.7-3l-0.1-0.1c-1.2-4.6-0.2-9.4-0.1-14c2-29.6,3.9-59.2,6-88.7c24.4-0.1,48.9,0,73.3,0c0,1.4,0,2.8,0,4.2
		c7.7,0.1,15.9-0.8,23.2,2.3c5,1.9,9,6.1,10.6,11.2c1.7,5.7,1.5,11.9-0.5,17.5c-1.9,5.2-6.4,9.2-11.7,10.8
		c-6.4,1.9-13.6,1.7-19.8-0.9c-4.8-2.1-8.7-6.2-10.2-11.3c-0.7-2.2-1-4.6-1-6.9c-4.7,0-9.4,0-14.1,0c0.1,5.9,1.5,11.9,4.8,16.9
		c3.5,5.4,9,9.4,15,11.7c7.6,3,16,3.6,24,2.4c7.8-1.2,15.5-4.7,20.8-10.7c4.9-5.4,7.4-12.6,7.7-19.9c0.4-6.9-1.1-14.1-5.5-19.6
		c-2.5-3.2-5.8-5.6-9.3-7.6c1.7-0.2,3.4-0.2,5.1-0.2c17.3,0,34.6,0,52,0C221.7,194.7,223.8,194.8,226,194.6"/>
	<path class="st2" d="M46.5,85.7c3.7-4.6,9.7-7.1,15.6-7c78.1,0,156.1,0,234.2-0.1c3.8,0,7.5,1.1,10.7,3.1c4.4,2.7,7.4,7.3,8.7,12.3
		c0.4,1.7,0.3,3.6,0.1,5.3c-4.2,31.8-8.6,63.5-12.8,95.3c-17.6,0-35.3,0-52.9,0c-2.9,0-5.9,0.1-8.8,0l-0.2,0c0-19.6,0-39.2,0-58.7
		c-1.2-0.1-2.4-0.1-3.5,0.3c-13.5,4.8-27.1,9.5-40.7,14.3c0,4.4,0,8.8,0,13.3c9.8-3.2,19.6-6.5,29.3-9.8c0,13.5,0,27.1,0,40.6
		l-0.3,0c-20.5,0.2-41,0-61.5,0.1c-1,0-2.1,0.3-3-0.1c-1.2-0.6-2.4-1.1-3.6-1.4c8.7-3.8,16.1-11.6,17.6-21.2c0.7-6,0-12.2-2.3-17.8
		c-2.3-5.6-6.4-10.4-11.7-13.5c-6.7-3.9-14.5-5.1-22.1-4.8c-7.7,0.3-15.3,2.7-21.5,7.4c-5.4,4-9.4,9.9-11,16.5
		c-0.7,2.5-0.9,5.1-1,7.7c4.7,0,9.5,0.1,14.2,0c-0.1-6.2,2.6-12.6,7.7-16.2c5.2-3.8,12-4.4,18.2-3.5c4.6,0.7,9.2,2.8,11.9,6.8
		c3.5,4.9,4,11.3,3.4,17.1c-0.8,6.1-5,11.5-10.7,13.9c-6.9,3.2-14.7,2.3-22,2.5l-0.2,0c0.1,2.2,0,4.4,0,6.7c-24.5,0-48.9,0-73.4,0
		c-4.2-31.1-8.4-62.2-12.6-93.4c-0.5-2.9-0.6-6,0.1-8.9C43.8,90.1,44.7,87.6,46.5,85.7"/>
</g>
</svg>
