<?xml version="1.0" encoding="utf-8"?>
<!-- Generator: Adobe Illustrator 22.0.0, SVG Export Plug-In . SVG Version: 6.00 Build 0)  -->
<svg version="1.1" id="Layer_1" xmlns="http://www.w3.org/2000/svg" xmlns:xlink="http://www.w3.org/1999/xlink" x="0px" y="0px"
	 viewBox="0 0 350 350" style="enable-background:new 0 0 350 350;" xml:space="preserve">
<style type="text/css">
	.st0{fill:#FFFFFF;}
</style>
<g id="Layer_6">
	<polygon class="st0" points="287.5,115.5 265.8,162.3 245.4,115.5 214.2,115.5 249.9,188 249.9,226.3 278.4,226.3 278.4,188 
		316.6,115.5 	"/>
</g>
<g id="Layer_5">
	<path class="st0" d="M241,190.6v-20.7l0,0c0-0.2-6.1-30.7-21.7-44l0,0c-2.8-0.4-6-0.6-9.6-0.6c-2.9,0-5.6,0.2-8.2,0.5
		c-4.9,0.7-9.1,2.1-12.3,4.6c-5.1,3.6-8.1,9.6-8.1,19.1h0h21.4h0c0-5.6,0.5-10.9,6.3-11.8c0.6-0.1,1.2-0.1,2-0.1
		c7.9,0,8.8,4.8,8.8,11.5v6c-0.3,0-0.5,0-0.8,0c-11.9-0.2-23.7,0.3-31.2,6.1c0,0,0,0,0,0c-5.1,3.9-8.3,10.3-8.3,20.6
		c0,11.9,4.3,22.1,15.5,24.4c0,0,0,0,0,0c0,0,0,0,0,0c1.6,0.3,3.4,0.5,5.3,0.5c4.4,0,8.2-0.9,11.4-2.6c3.6-2,6.6-5.1,9.1-9.4h0.3
		l0.9,10.4h0h20.3C241.6,200.4,241,195.4,241,190.6z M208.7,193.3c-7.1,0-8.1-6.8-8.1-12.4c0-8.3,2.8-11.3,7.4-12.5
		c3.1-0.8,7.1-0.8,11.5-1c0,7.1,1.4,20.2-5.5,24.5C212.7,192.7,211,193.3,208.7,193.3z"/>
</g>
<g id="Layer_4">
	<path class="st0" d="M187.6,161.2C187.6,161.2,187.6,161.2,187.6,161.2c-3.1-3.3-7.6-5.4-14-5.4c-7.9,0-13.3,2.3-17.7,8.9h-0.3
		v-40.9h-21.8l0,111.4h20.7v-8.6h0.3c4,7.6,10,10.2,18.4,10.2c18,0,21.1-16,21.6-30.5 M173.6,195.6c0,19.6-1.4,27.8-9.3,27.8
		c-7.4,0-8.8-8.2-8.8-27.8c0-15.6-0.2-26.4,8.8-26.4C173.7,169.2,173.6,180,173.6,195.6z"/>
</g>
<g id="Layer_3">
	<path class="st0" d="M133.8,160.6L133.8,160.6c-3.2-1.4-7.1-2.6-11.6-3.6c-7.8-1.6-17.5-2.5-29.8-2.5c-52.4,0-58,16-58,34.8
		c0,21.5,6.8,36.6,58,36.6c11.8,0,21.9-1.2,30-3c4.3-1,8.2-2.3,11.5-3.7l0,0c0.3-0.1,7.2-5.4,4.8-12.5c-0.6-1.8-4.8-5.6-4.8-5.6h0
		h-11.3l-0.2,0h-12.9c0,6-2.8,12.6-16.9,12.6c-17.5,0-18-12.2-18-20.4h59.4v0C133.8,193.3,145.9,179.8,133.8,160.6z M110.6,182.5
		H74.3c0-5.8-0.3-16.2,18-16.2C111.2,166.3,110.6,175.9,110.6,182.5z"/>
</g>
<g id="Layer_1_1_">
	<path id="ay" class="st0" d="M219.3,125.9l21.7,44v-18.4C241,139.1,238.3,128.5,219.3,125.9"/>
	<path id="ba" class="st0" d="M194.9,195.7c0-11.1,0.3-26.5-7.3-34.6c-5.1,3.9-8.3,10.3-8.3,20.6c0,11.9,4.3,22.1,15.5,24.4
		C194.9,202.6,194.9,199,194.9,195.7"/>
</g>
<g id="Layer_2_1_">
	<path id="ebtop" class="st0" d="M149.7,201.1h-16v18.1c0.3-0.1,0.5-0.2,0.8-0.3C144.1,214.6,149.2,208.5,149.7,201.1"/>
	<path id="ebbottom" class="st0" d="M150.3,193.3c0.9-14-1.2-25.8-16.6-32.6v32.6H150.3"/>
</g>
</svg>
