<?xml version="1.0" encoding="utf-8"?>
<!-- Generator: Adobe Illustrator 22.0.0, SVG Export Plug-In . SVG Version: 6.00 Build 0)  -->
<svg version="1.1" id="Layer_1" xmlns="http://www.w3.org/2000/svg" xmlns:xlink="http://www.w3.org/1999/xlink" x="0px" y="0px"
	 viewBox="0 0 350 350" style="enable-background:new 0 0 350 350;" xml:space="preserve">
<style type="text/css">
	.st0{fill:#FFFFFF;}
</style>
<path class="st0" d="M296.8,38.6H54.6c-8.3,0-15,6.7-15,15v242.2c0,8.3,6.7,15,15,15H185V205.4h-35.5v-41.1H185V134
	c0-35.2,21.5-54.3,52.9-54.3c15,0,27.9,1.1,31.7,1.6v36.8l-21.8,0c-17.1,0-20.4,8.1-20.4,20v26.2h40.7l-5.3,41.1h-35.4v105.5h69.4
	c8.3,0,15-6.7,15-15V53.6C311.9,45.3,305.1,38.6,296.8,38.6z"/>
</svg>
