<?xml version="1.0" encoding="utf-8"?>
<!-- Generator: Adobe Illustrator 22.0.0, SVG Export Plug-In . SVG Version: 6.00 Build 0)  -->
<svg version="1.1" id="Layer_1" xmlns="http://www.w3.org/2000/svg" xmlns:xlink="http://www.w3.org/1999/xlink" x="0px" y="0px"
	 viewBox="0 0 350 350" style="enable-background:new 0 0 350 350;" xml:space="preserve">
<style type="text/css">
	.st0{fill:#FFFFFF;}
</style>
<path class="st0" d="M178.6,40c-75.9,0-137.4,61.5-137.4,137.4c0,60.8,39.3,112.1,93.9,130.3c6.9,1.2,9.4-2.9,9.4-6.5
	c0-3.3-0.2-14.1-0.2-25.6c-34.5,6.4-43.4-8.4-46.2-16.1c-1.5-3.9-8.2-16.1-14.1-19.4c-4.8-2.6-11.7-8.9-0.2-9.1
	c10.8-0.2,18.5,10,21.1,14.1c12.4,20.8,32.1,14.9,40,11.3c1.2-8.9,4.8-14.9,8.8-18.4c-30.6-3.4-62.5-15.3-62.5-67.8
	c0-14.9,5.3-27.3,14.1-36.9c-1.4-3.4-6.2-17.5,1.4-36.4c0,0,11.5-3.6,37.8,14.1c11-3.1,22.7-4.6,34.3-4.6c11.7,0,23.4,1.5,34.3,4.6
	c26.3-17.9,37.8-14.1,37.8-14.1c7.6,18.9,2.7,33,1.4,36.4c8.8,9.6,14.1,21.8,14.1,36.9c0,52.7-32.1,64.4-62.7,67.8
	c5,4.3,9.3,12.5,9.3,25.4c0,18.4-0.2,33.1-0.2,37.8c0,3.6,2.6,7.9,9.4,6.5C276.7,289.5,316,238,316,177.4
	C316,101.5,254.5,40,178.6,40z"/>
</svg>
