<?xml version="1.0" encoding="utf-8"?>
<!-- Generator: Adobe Illustrator 22.0.0, SVG Export Plug-In . SVG Version: 6.00 Build 0)  -->
<svg version="1.1" id="Layer_1" xmlns="http://www.w3.org/2000/svg" xmlns:xlink="http://www.w3.org/1999/xlink" x="0px" y="0px"
	 viewBox="0 0 350 350" style="enable-background:new 0 0 350 350;" xml:space="preserve">
<style type="text/css">
	.st0{fill:#FFFFFF;}
</style>
<path class="st0" d="M45.4,34.3c-2.8,1.5-5.4,4-7.2,6.9l-2.9,4.6V174v128.1l2.3,4c1.2,2.3,4,5.3,6.2,6.8l4,2.8l128.3,0.3l128.2,0.2
	l4.5-2.3c2.9-1.6,5.4-4,7.3-7.2l3-4.8V173.5V45.2l-3-4.3c-1.6-2.3-5-5.3-7.3-6.6l-4.4-2.3H177.1H49.8L45.4,34.3z M306.6,39.8
	c1.9,1,4.3,3.4,5.3,5.3c1.7,3.2,1.8,9.2,1.8,129s-0.1,125.8-1.8,129c-1,1.9-3.4,4.3-5.3,5.3c-3.2,1.7-9.2,1.8-129.6,1.8H50.8
	l-3.4-2.3c-7.4-4.9-6.9,5.4-6.9-133.8S40,45.2,47.4,40.3l3.4-2.3H177C297.4,38,303.4,38.1,306.6,39.8z"/>
<path class="st0" d="M69.8,130.6c-0.3,0.7-0.4,20.5-0.3,44l0.3,42.7h10.9h10.9v-43.7v-43.7l-10.7-0.3
	C73,129.4,70.1,129.7,69.8,130.6z"/>
<path class="st0" d="M100.1,173.6v44.3l9.7-0.3l9.6-0.3L120,192l0.5-25.3l3.3,23.8c1.8,13.1,3.6,24.6,3.8,25.5
	c0.5,1.5,1.7,1.8,7.4,1.8c3.8,0,6.9-0.3,6.9-0.8c0.1-0.4,1.8-12.8,3.9-27.5l3.9-26.8l0.3,27.3l0.4,27.3l9.7,0.3l9.6,0.3v-44.3v-44.3
	l-14.6,0.3l-14.7,0.3l-2.6,19.9l-2.5,19.9l-1.2-6.5c-0.6-3.6-1.8-11.1-2.7-16.9c-0.8-5.8-1.8-11.9-2.1-13.7l-0.5-3.2h-14.3h-14.4
	L100.1,173.6L100.1,173.6z"/>
<path class="st0" d="M177.6,173.6v44.5l18.7-0.6c20.8-0.6,24.8-1.4,28.4-5.7c3.4-4.1,3.8-8.8,3.4-41.2c-0.3-23.5-0.6-28.3-2-30.8
	c-4.2-7.6-8.8-9.1-31.1-10l-17.4-0.7V173.6z M206.7,149.8c1.2,5.4,0.4,49.9-0.8,51c-0.6,0.6-2.2,1.2-3.5,1.3l-2.5,0.3l-0.3-28.6
	l-0.2-28.6l3.2,0.3C205.5,145.8,205.9,146.2,206.7,149.8z"/>
<path class="st0" d="M236.4,173.3l0.3,44l9.7,0.3l9.7,0.3l1.3-3.1c1.1-2.8,1.4-2.9,2.6-1.5c5.9,7.1,19.3,6.2,25.2-1.8
	c2-2.7,2.1-4.3,2.4-25.8c0.3-20.6,0.1-23.4-1.5-26.5c-3.9-7.5-14.9-9.6-23.5-4.6l-4.6,2.7v-14v-13.9h-10.9h-10.9L236.4,173.3z
	 M263.4,164.8c1.4,0.5,1.6,3.3,1.6,20.3c0,19.4,0,19.8-2.2,20.5c-4.1,1.3-4.8-1.5-4.8-20.3C258,165.4,258.7,163,263.4,164.8z"/>
</svg>
