<?xml version="1.0" encoding="utf-8"?>
<!-- Generator: Adobe Illustrator 22.0.0, SVG Export Plug-In . SVG Version: 6.00 Build 0)  -->
<svg version="1.1"
	 id="Layer_1" inkscape:version="0.48.2 r9819" sodipodi:docname="imgur icon cropped.svg" xmlns:cc="http://creativecommons.org/ns#" xmlns:dc="http://purl.org/dc/elements/1.1/" xmlns:inkscape="http://www.inkscape.org/namespaces/inkscape" xmlns:rdf="http://www.w3.org/1999/02/22-rdf-syntax-ns#" xmlns:sodipodi="http://sodipodi.sourceforge.net/DTD/sodipodi-0.dtd" xmlns:svg="http://www.w3.org/2000/svg"
	 xmlns="http://www.w3.org/2000/svg" xmlns:xlink="http://www.w3.org/1999/xlink" x="0px" y="0px" viewBox="0 0 350 350"
	 style="enable-background:new 0 0 350 350;" xml:space="preserve">
<style type="text/css">
	.st0{fill:#FFFFFF;}
</style>
<sodipodi:namedview  bordercolor="#666666" borderopacity="1" fit-margin-bottom="0" fit-margin-left="0" fit-margin-right="0" fit-margin-top="0" gridtolerance="10" guidetolerance="10" id="namedview13" inkscape:current-layer="Layer_1" inkscape:cx="-19.322034" inkscape:cy="60" inkscape:pageopacity="1" inkscape:pageshadow="2" inkscape:showpageshadow="false" inkscape:window-height="1028" inkscape:window-maximized="1" inkscape:window-width="1920" inkscape:window-x="1672" inkscape:window-y="-8" inkscape:zoom="1.9666667" objecttolerance="10" pagecolor="#868686" showgrid="false">
	</sodipodi:namedview>
<path class="st0" d="M43.8,41.3v263.7h263.7V41.3H43.8z M195.2,240.2c0,18.2-6.3,27.2-20.5,27.2c-14.2,0-20.8-9-20.8-27.2v-75
	c0-18.2,6.6-27,20.8-27c14,0,20.5,8.8,20.5,27V240.2z M174.6,124c-13.4,0-24-9.5-24-21.5c0-11.8,10.8-21.5,24-21.5
	c13.2,0,23.7,9.7,23.7,21.5C198.3,114.5,187.8,124,174.6,124z"/>
</svg>
