<?xml version="1.0" encoding="utf-8"?>
<!-- Generator: Adobe Illustrator 22.0.0, SVG Export Plug-In . SVG Version: 6.00 Build 0)  -->
<svg version="1.1" id="Layer_1" xmlns="http://www.w3.org/2000/svg" xmlns:xlink="http://www.w3.org/1999/xlink" x="0px" y="0px"
	 viewBox="0 0 350 350" style="enable-background:new 0 0 350 350;" xml:space="preserve">
<style type="text/css">
	.st0{fill:#FFFFFF;}
</style>
<g>
	<path class="st0" d="M285.7,172.4c0,22.2,0,37.2-0.5,45.5c-1,20.2-6.7,35.7-18.1,46.6c-11.4,10.9-26.4,17.1-46.6,18.1
		c-8.3,0.5-23.8,0.5-45.5,0.5c-22.2,0-37.2,0-45.5-0.5c-20.2-1-35.7-6.7-46.6-18.1c-10.9-10.9-17.1-26.4-18.1-46.6
		c-0.5-8.3-0.5-23.8-0.5-45.5s0-37.2,0.5-45.5c1-20.2,6.7-35.7,18.1-46.6c10.9-10.9,26.4-17.1,46.6-18.1c8.3-0.5,23.8-0.5,45.5-0.5
		c22.2,0,37.2,0,45.5,0.5c20.2,1,35.7,6.7,46.6,18.1c10.9,11.4,17.1,26.4,18.1,46.6C285.2,135.2,285.7,150.2,285.7,172.4z
		 M185.9,81.4c-6.7,0-10.3,0-10.9,0s-4.1,0-10.9,0s-11.9,0-15,0c-3.6,0-8.3,0-14,0.5c-5.7,0-10.9,0.5-15,1.6
		C116,84,112.4,85,109.8,86c-4.7,2.1-8.8,4.7-12.9,8.3c-3.6,3.6-6.2,7.8-8.3,12.9c-1,2.6-2.1,6.2-2.6,10.3c-0.5,4.1-1,8.8-1.6,15
		c0,5.7-0.5,10.3-0.5,14s0,8.8,0,15c0,6.7,0,10.3,0,10.9c0,0.5,0,4.1,0,10.9s0,11.9,0,15c0,3.6,0,8.3,0.5,14c0,5.7,0.5,10.9,1.6,15
		s1.6,7.8,2.6,10.3c2.1,4.7,4.7,8.8,8.3,12.9c3.6,3.6,7.8,6.2,12.9,8.3c2.6,1,6.2,2.1,10.3,2.6c4.1,0.5,8.8,1,15,1.6
		c6.2,0.5,10.3,0.5,14,0.5s8.8,0,15,0c6.7,0,10.3,0,10.9,0s4.1,0,10.9,0c6.7,0,11.9,0,15,0c3.6,0,8.3,0,14-0.5
		c5.7,0,10.9-0.5,15-1.6c4.1-0.5,7.8-1.6,10.3-2.6c4.7-2.1,8.8-4.7,12.9-8.3c3.6-3.6,6.2-7.8,8.3-12.9c1-2.6,2.1-6.2,2.6-10.3
		c0.5-4.1,1-8.8,1.6-15c0-5.7,0.5-10.3,0.5-14c0-3.6,0-8.8,0-15c0-6.7,0-10.3,0-10.9c0-0.5,0-4.1,0-10.9s0-11.9,0-15
		c0-3.6,0-8.3-0.5-14c0-5.7-0.5-10.9-1.6-15c-0.5-4.1-1.6-7.8-2.6-10.3c-2.1-4.7-4.7-8.8-8.3-12.9c-3.6-3.6-7.8-6.2-12.9-8.3
		c-2.6-1-6.2-2.1-10.3-2.6c-4.1-0.5-8.8-1-15-1.6c-5.7,0-10.3-0.5-14-0.5C197.8,81.4,192.6,81.4,185.9,81.4z M214.8,132.1
		c10.9,10.9,16.6,24.3,16.6,40.4s-5.7,29-16.6,40.4c-10.9,10.9-24.3,16.6-40.4,16.6s-29-5.7-40.4-16.6
		c-10.9-10.9-16.6-24.3-16.6-40.4s5.7-29,16.6-40.4c10.9-10.9,24.3-16.6,40.4-16.6S204,120.7,214.8,132.1z M200.9,198.3
		c7.2-7.2,10.9-16,10.9-25.9s-3.6-19.1-10.9-26.4s-16-10.9-26.4-10.9c-10.3,0-19.1,3.6-26.4,10.9s-10.9,16-10.9,26.4
		c0,10.3,3.6,19.1,10.9,25.9c7.2,7.2,16,10.9,26.4,10.9C184.8,209.1,193.6,205.5,200.9,198.3z M243.3,103.6c2.6,2.6,4.1,5.7,4.1,9.3
		s-1.6,6.7-4.1,9.3s-5.7,4.1-9.3,4.1s-6.7-1.6-9.3-4.1c-2.6-2.6-4.1-5.7-4.1-9.3s1.6-6.7,4.1-9.3c2.6-2.6,5.7-4.1,9.3-4.1
		S240.7,101,243.3,103.6z"/>
</g>
</svg>
