<?xml version="1.0" encoding="utf-8"?>
<!-- Generator: Adobe Illustrator 22.0.0, SVG Export Plug-In . SVG Version: 6.00 Build 0)  -->
<svg version="1.1" id="Layer_1" xmlns="http://www.w3.org/2000/svg" xmlns:xlink="http://www.w3.org/1999/xlink" x="0px" y="0px"
	 viewBox="0 0 350 350" style="enable-background:new 0 0 350 350;" xml:space="preserve">
<style type="text/css">
	.st0{fill:#FFFFFF;}
</style>
<path class="st0" d="M263.8,50H87.2C66.1,50,49,67.1,49,88.2v176.6c0,21.1,17.1,38.2,38.2,38.2h176.6c21.1,0,38.2-17.1,38.2-38.2
	V88.2C302,67.1,284.9,50,263.8,50z M129.9,262.3H91.7v-115h38.2V262.3z M110.8,131.7L110.8,131.7h-0.2c-12.8,0-21.1-8.8-21.1-19.9
	c0-11.3,8.5-19.9,21.6-19.9c13.1,0,21.1,8.6,21.4,19.9C132.5,122.8,124.2,131.7,110.8,131.7z M267.7,262.3h-38.2v-61.5
	c0-15.5-5.5-26-19.4-26c-10.6,0-16.8,7.1-19.6,14c-1,2.5-1.3,5.9-1.3,9.3v64.2h-38.2l0,0c0,0,0.5-104.2,0-115h38.2v16.3
	c5.1-7.8,14.2-19,34.4-19c25.1,0,44,16.4,44,51.7V262.3z"/>
</svg>
