<?xml version="1.0" encoding="utf-8"?>
<!-- Generator: Adobe Illustrator 22.0.0, SVG Export Plug-In . SVG Version: 6.00 Build 0)  -->
<svg version="1.1" id="Layer_1" xmlns="http://www.w3.org/2000/svg" xmlns:xlink="http://www.w3.org/1999/xlink" x="0px" y="0px"
	 viewBox="0 0 350 350" style="enable-background:new 0 0 350 350;" xml:space="preserve">
<style type="text/css">
	.st0{fill:none;stroke:#FFFFFF;stroke-width:3;stroke-miterlimit:10;}
	.st1{fill:#FFFFFF;}
	.st2{fill:none;}
</style>
<path class="st0" d="M278.8,260H74.6c-8.1,0-14.6-6.5-14.6-14.6V99.6C60,91.5,66.5,85,74.6,85h204.2c8.1,0,14.6,6.5,14.6,14.6v145.8
	C293.3,253.5,286.8,260,278.8,260z"/>
<path class="st1" d="M89.2,260H74.6c-8.1,0-14.6-6.5-14.6-14.6V99.6C60,91.5,66.5,85,74.6,85l0,0c8.1,0,14.6,6.5,14.6,14.6V260z"/>
<path class="st1" d="M264.2,260h14.6c8.1,0,14.6-6.5,14.6-14.6V99.6c0-8.1-6.5-14.6-14.6-14.6l0,0c-8.1,0-14.6,6.5-14.6,14.6V260z"
	/>
<path class="st1" d="M287.1,111.5c3.8-2.6,6.2-7,6.2-12c0-8.1-6.5-14.6-14.6-14.6c-3.1,0-6,1-8.4,2.6l-93.7,68.2l0,0l0,0L82.9,87.6
	C80.6,86,77.7,85,74.6,85C66.5,85,60,91.5,60,99.6c0,4.9,2.5,9.3,6.2,12l-0.4-0.3l110.8,80.7"/>
<line class="st2" x1="287.5" y1="111.3" x2="176.7" y2="191.9"/>
</svg>
