<?xml version="1.0" encoding="utf-8"?>
<!-- Generator: Adobe Illustrator 22.0.0, SVG Export Plug-In . SVG Version: 6.00 Build 0)  -->
<svg version="1.1" id="Layer_1" xmlns="http://www.w3.org/2000/svg" xmlns:xlink="http://www.w3.org/1999/xlink" x="0px" y="0px"
	 viewBox="0 0 350 350" style="enable-background:new 0 0 350 350;" xml:space="preserve">
<style type="text/css">
	.st0{fill:#FFFFFF;}
</style>
<g>
	<path class="st0" d="M141.4,131.5c-11.8,34.1-25.4,67.6-28.5,103.8c-0.4,4.5-4.9,8.3-11.2,9.4c-10.1,1.7-18.5-3.5-22.4-14
		c-4.6-12.4-3.4-25.1,0.8-37c7-20.2,15-40,23-59.8c7.8-19.1,16.7-37.8,20.4-58.2c1.2-6.8,0.7-13.9,1.1-20.8c0.1-1.2,0.2-3.1,1-3.6
		c7.9-4.9,16-9.5,25.7-9.8c9.2-0.3,15.7,4.1,20.4,11.5c6.2,9.9,7.8,21.2,9.2,32.4c2.8,22,5.1,44.1,7.6,66.1c0.1,0.7,0.3,1.4,0.7,3.4
		c3.4-5.2,6.2-9.4,8.8-13.6c14-22.6,27.5-45.4,37.3-70.2c1.9-4.7,3.6-9.7,4.3-14.6c0.6-3.9,2.1-6.2,5.7-7.5
		c7.4-2.5,14.7-6.2,22.4-7.3c13.2-1.9,21.2,5.4,22.5,18.7c1.5,14.9-2.2,29-6.8,42.9c-6.8,20.6-14.5,40.9-17.9,62.5
		c-2.7,16.6-3.9,33.3-2.7,50.1c0.2,2.6,0,5.2,0,7.8c-21.1,1.7-36.5-10.1-40.8-28.6c-3.8-16.1-1.7-32.1,1.6-48
		c1.2-5.6,2.6-11.1,3.5-16.9c-3.4,5.8-6.5,11.7-10.3,17.2c-10.6,15.5-21.2,31-32.3,46.1c-5.3,7.2-12.9,10.9-22,8.8
		c-7.9-1.8-11.8-8.1-13-15.4c-2.8-17-5-34-7.5-51.1C141.9,134.4,141.6,133,141.4,131.5z"/>
	<path class="st0" d="M61.9,309.9c-9.5-8-7.2-30.5,3.8-39.5c4.9-4,10.7-3.8,16.4-4.1c41.8-2,83.7-3.7,125.5-5.8
		c26.5-1.3,52.9-3.8,79-9c1.2-0.2,2.5-0.3,3.6-0.4c7,12.2,2.8,26.4-10,31.4c-5.9,2.3-12.6,3.3-19,3.8c-32.2,2.5-64.4,4.3-96.5,7
		c-30.1,2.5-60.3,4.7-89.8,12.1C70.6,306.5,66.5,308.3,61.9,309.9z"/>
</g>
</svg>
