<?xml version="1.0" encoding="utf-8"?>
<!-- Generator: Adobe Illustrator 22.0.0, SVG Export Plug-In . SVG Version: 6.00 Build 0)  -->
<svg version="1.1"
	 id="svg2" inkscape:version="0.91 r13725" sodipodi:docname="Netflix icon.svg" xmlns:cc="http://creativecommons.org/ns#" xmlns:dc="http://purl.org/dc/elements/1.1/" xmlns:inkscape="http://www.inkscape.org/namespaces/inkscape" xmlns:rdf="http://www.w3.org/1999/02/22-rdf-syntax-ns#" xmlns:sodipodi="http://sodipodi.sourceforge.net/DTD/sodipodi-0.dtd" xmlns:svg="http://www.w3.org/2000/svg"
	 xmlns="http://www.w3.org/2000/svg" xmlns:xlink="http://www.w3.org/1999/xlink" x="0px" y="0px" viewBox="0 0 350 350"
	 style="enable-background:new 0 0 350 350;" xml:space="preserve">
<style type="text/css">
	.st0{fill:#B1060F;stroke:#000000;}
	.st1{fill:url(#path5623_1_);}
	.st2{fill:#E50914;}
	.st3{fill:#FFFFFF;}
	.st4{fill:url(#path5719_1_);}
</style>
<g id="layer1" transform="translate(12.494543,6.7556334)" inkscape:groupmode="layer" inkscape:label="Capa 1">
	<g id="g4182">
		<g id="g5747" transform="matrix(0.29074008,0,0,0.29074008,81.631476,113.77111)">
			<path id="path4155" inkscape:connector-curvature="0" class="st0" d="M338.3-192.2l-0.3,168l-0.3,168l-13.8-39c0,0,0-0.1,0-0.1
				l-17.9,374c17.6,49.6,27,76.1,27.1,76.2c0.1,0.1,10.1,0.7,22.2,1.3c36.6,1.8,82,5.7,116.5,10c8,1,14.8,1.5,15.3,1.1
				c0.4-0.4,0.6-171.4,0.5-380.1l-0.3-379.4h-74.5H338.3z"/>
			<path id="path4157" inkscape:connector-curvature="0" class="st0" d="M68.8-192.7v379.8c0,208.9,0.2,380,0.5,380.3
				c0.3,0.3,13.2-1,28.8-2.7c15.6-1.7,37.1-3.9,47.8-4.8c16.4-1.4,65.6-4.5,71.2-4.6c1.7,0,1.8-8.5,2-160.9l0.3-160.9l11.9,33.6
				c1.8,5.2,2.4,6.8,4.2,11.9l17.9-373.9c-3.8-10.7-1.8-5.1-6.1-17.3c-14.6-41.3-27-76.2-27.5-77.8l-1-2.8h-74.9H68.8z"/>
			
				<radialGradient id="path5623_1_" cx="3173.262" cy="255.4619" r="368.7173" gradientTransform="matrix(7.072386e-02 -2.448786e-02 -0.897 -2.5906 275.9186 922.4357)" gradientUnits="userSpaceOnUse">
				<stop  offset="0" style="stop-color:#000000"/>
				<stop  offset="1" style="stop-color:#000000;stop-opacity:0"/>
			</radialGradient>
			<path id="path5623" inkscape:connector-curvature="0" class="st1" d="M68.8-192.7V20.5L219,418.9c0-9.1,0-14.1,0.1-24.5
				l0.3-160.9l11.9,33.6C297.3,454.3,332.8,554.7,333,554.9c0.1,0.1,10.1,0.7,22.2,1.3c36.6,1.8,82,5.7,116.5,10
				c8,1,14.8,1.5,15.3,1.1c0.3-0.3,0.5-84.1,0.5-202.4L338-64.9L338-24.2l-0.3,168l-13.8-39c-13.5-38.1-22.5-63.6-76.8-217
				c-14.6-41.3-27-76.2-27.5-77.8l-1-2.8h-74.9H68.8L68.8-192.7z"/>
			<path id="path4159" inkscape:connector-curvature="0" class="st2" d="M68.8-192.7l150.5,426.5v-0.2l11.9,33.6
				C297.3,454.3,332.8,554.7,333,554.9c0.1,0.1,10.1,0.7,22.2,1.3c36.6,1.8,82,5.7,116.5,10c7.9,1,14.8,1.5,15.2,1.1L337.7,143.7
				v0.1l-13.8-39c-13.5-38.1-22.5-63.6-76.8-217c-14.6-41.3-27-76.2-27.5-77.8l-1-2.8h-74.9L68.8-192.7L68.8-192.7z"/>
			<path id="path5715" inkscape:connector-curvature="0" class="st3" d="M338.3-192.2l-0.3,168l-0.3,168l-13.8-39c0,0,0-0.1,0-0.1
				l-17.9,374c17.6,49.6,27,76.1,27.1,76.2c0.1,0.1,10.1,0.7,22.2,1.3c36.6,1.8,82,5.7,116.5,10c8,1,14.8,1.5,15.3,1.1
				c0.4-0.4,0.6-171.4,0.5-380.1l-0.3-379.4h-74.5H338.3z"/>
			<path id="path5717" inkscape:connector-curvature="0" class="st3" d="M68.8-192.7v379.8c0,208.9,0.2,380,0.5,380.3
				c0.3,0.3,13.2-1,28.8-2.7c15.6-1.7,37.1-3.9,47.8-4.8c16.4-1.4,65.6-4.5,71.2-4.6c1.7,0,1.8-8.5,2-160.9l0.3-160.9l11.9,33.6
				c1.8,5.2,2.4,6.8,4.2,11.9l17.9-373.9c-3.8-10.7-1.8-5.1-6.1-17.3c-14.6-41.3-27-76.2-27.5-77.8l-1-2.8h-74.9H68.8z"/>
			
				<radialGradient id="path5719_1_" cx="3173.262" cy="255.4619" r="368.7173" gradientTransform="matrix(7.072386e-02 -2.448786e-02 -0.897 -2.5906 275.9186 922.4357)" gradientUnits="userSpaceOnUse">
				<stop  offset="0" style="stop-color:#000000"/>
				<stop  offset="1" style="stop-color:#000000;stop-opacity:0"/>
			</radialGradient>
			<path id="path5719" inkscape:connector-curvature="0" class="st4" d="M68.8-192.7V20.5L219,418.9c0-9.1,0-14.1,0.1-24.5
				l0.3-160.9l11.9,33.6C297.3,454.3,332.8,554.7,333,554.9c0.1,0.1,10.1,0.7,22.2,1.3c36.6,1.8,82,5.7,116.5,10
				c8,1,14.8,1.5,15.3,1.1c0.3-0.3,0.5-84.1,0.5-202.4L338-64.9L338-24.2l-0.3,168l-13.8-39c-13.5-38.1-22.5-63.6-76.8-217
				c-14.6-41.3-27-76.2-27.5-77.8l-1-2.8h-74.9H68.8L68.8-192.7z"/>
			<path id="path5721" inkscape:connector-curvature="0" class="st3" d="M68.8-192.7l150.5,426.5v-0.2l11.9,33.6
				C297.3,454.3,332.8,554.7,333,554.9c0.1,0.1,10.1,0.7,22.2,1.3c36.6,1.8,82,5.7,116.5,10c7.9,1,14.8,1.5,15.2,1.1L337.7,143.7
				v0.1l-13.8-39c-13.5-38.1-22.5-63.6-76.8-217c-14.6-41.3-27-76.2-27.5-77.8l-1-2.8h-74.9L68.8-192.7L68.8-192.7z"/>
		</g>
	</g>
</g>
</svg>
