<?xml version="1.0" encoding="utf-8"?>
<!-- Generator: Adobe Illustrator 22.0.0, SVG Export Plug-In . SVG Version: 6.00 Build 0)  -->
<svg version="1.1" id="Layer_1" xmlns="http://www.w3.org/2000/svg" xmlns:xlink="http://www.w3.org/1999/xlink" x="0px" y="0px"
	 viewBox="0 0 350 350" style="enable-background:new 0 0 350 350;" xml:space="preserve">
<style type="text/css">
	.st0{fill:#FFFFFF;}
</style>
<g>
	<path class="st0" d="M317.6,191.6c0,31.7,0,63.3,0,95c0,16.5-5.2,22.1-21.6,23.2c-34.4,2.1-68.8,4.1-103.2,6.2
		c-26.3,1.6-52.7,3.3-79,4.8c-3.1,0.2-6.1,0.2-9.2,0.2c-6.8-0.2-12.4-2.7-16.6-8.1c-13.2-17.1-26.4-34.2-39.5-51.3
		c-5.9-7.7-8.7-16.4-8.6-26.3C40,179,39.9,122.8,39.9,66.6c0-1.6,0-3.2,0.1-4.8c0.8-11.2,6.8-17,18.1-17.8
		c35.1-2.6,70.2-5.2,105.3-7.8c20.3-1.5,40.6-2.9,60.9-4.5c11.3-0.9,21.1,1.9,30.3,8.6c17.9,13.1,36.1,25.8,54.4,38.4
		c6.2,4.2,8.7,9.3,8.6,16.9C317.4,127.6,317.6,159.6,317.6,191.6z M198.5,102.8C198.5,102.8,198.5,102.8,198.5,102.8
		c-29.1,1.7-58.3,3.4-87.4,5.2c-12.6,0.8-13.7,2.1-13.7,14.9c0,53.7,0,107.5,0,161.2c0,1.6,0,3.2,0.1,4.8c0.6,6.5,3.8,9.7,10.4,9.9
		c3.4,0.1,6.9-0.1,10.3-0.3c28-1.6,56.1-3.3,84.1-4.9c27.1-1.6,54.1-3.2,81.2-4.6c12.3-0.6,14.9-3.5,14.9-16.2
		c0-54.1,0-108.2,0-162.3c0-2-0.1-3.9-0.3-5.9c-0.7-5.2-3.5-7.5-8.8-7.2C259,99.3,228.8,101,198.5,102.8z M277.8,78.2
		c0.2-0.4,0.3-0.8,0.5-1.2c-1.2-1.1-2.3-2.4-3.6-3.4c-8.6-6.3-17.4-12.4-25.9-18.8c-6.9-5.2-14.5-7.6-23-7
		c-10.9,0.8-21.8,1.6-32.7,2.4c-29.1,2.1-58.2,4.2-87.3,6.4c-12.2,0.9-24.5,1.8-36.7,2.9c-1.5,0.1-2.9,1.8-4.4,2.8
		c0.8,1.3,1.5,2.8,2.6,3.7c6.9,5.7,14.1,11.1,21,16.8c5.3,4.4,11.3,6.1,18.1,5.7c15.4-1,30.9-1.8,46.3-2.7c36-2.1,72-4.3,108-6.5
		C266.4,79,272.1,78.6,277.8,78.2z"/>
	<path class="st0" d="M164.2,256.8c5.5,1.3,11.1,2.6,16.6,3.9c0.1,4.8-2.8,8.5-8,9.4c-4.4,0.8-9,0.9-13.5,1.2
		c-9.5,0.6-19.1,1.2-28.7,1.7c-0.7,0-1.4-0.1-2.1-0.1c-1.1-4.9,0.6-7.9,5-9.2c2.9-0.9,5.9-1.6,8.8-2.5c0-37,0-73.8,0-110.8
		c-3.8-0.3-7.4-0.9-11.1-0.9c-3.1,0-3.4-1.5-3.1-3.9c0.8-5.3,4.3-8.9,9.8-9.3c13.2-1,26.4-1.8,39.7-2.5c1.2-0.1,2.8,1.2,3.5,2.3
		c17.6,26.7,35.1,53.5,52.6,80.3c0.8,1.2,1.6,2.4,2.8,4.3c0-26,0-51.4,0-76.9c-4.7-0.6-9.4-1.2-14-1.8c-0.8-5.5,1.9-10.3,7.1-10.8
		c13.4-1.2,26.9-1.9,40.2-2.7c1.9,6.4,0.1,9.7-5.8,11c-2.3,0.5-4.5,1-7.2,1.5c0,1.4,0,2.9,0,4.3c0,38.7,0,77.3,0.1,116
		c0,2.8-0.8,4.4-3.4,5.2c-4.3,1.4-8.5,3.2-12.9,4.1c-7.1,1.5-13.6-0.2-17.9-6.5c-6.9-10-13.6-20.1-20.2-30.3
		c-12.3-19.1-24.4-38.2-36.6-57.4c-0.4-0.7-0.9-1.4-1.8-2.6C164.2,201.7,164.2,229.1,164.2,256.8z"/>
</g>
</svg>
