<?xml version="1.0" encoding="utf-8"?>
<!-- Generator: Adobe Illustrator 22.0.0, SVG Export Plug-In . SVG Version: 6.00 Build 0)  -->
<svg version="1.1" id="Layer_1" xmlns="http://www.w3.org/2000/svg" xmlns:xlink="http://www.w3.org/1999/xlink" x="0px" y="0px"
	 viewBox="0 0 350 350" style="enable-background:new 0 0 350 350;" xml:space="preserve">
<style type="text/css">
	.st0{fill:#FFFFFF;}
</style>
<g>
	<path class="st0" d="M107.8,139.2c-9.4-1.4-18.1-4.4-25-11.2c-9.9-9.8-12.5-22-10.2-35.2c2.8-16.3,13-27.5,27-35.3
		c12.8-7.1,26.6-8.8,41-7.4c15.8,1.6,30.6,6.7,45.5,11.9c9.1,3.1,18.2,6.5,27.8,7.9c4.2,0.6,8.4,1,12.6-0.3
		c5.7-1.8,9.5-5.6,10.1-11.7c0.6-5.7-0.7-10.8-6.2-13.6c-2.4-1.2-5.2-1.8-7.9-2.1c-3-0.3-6.1,0.1-9.2,0.2c-0.9,0-1.8,0.1-2.9-0.3
		c0.4-0.2,0.7-0.6,1.1-0.7c18.7-4.8,36.3-2.4,51.7,9.5c13.1,10.1,16.5,24.2,13.6,39.9c-3.5,19.3-19.5,34-39.8,37.2
		c-1.7,0.3-3.4,0.5-5.4,0.8c0,0.8-0.1,1.6-0.1,2.4c0,7.4,0,14.8,0,22.1c0,1.7,0.5,2.8,1.8,3.9c10.1,8.7,20.1,17.6,30.2,26.4
		c0.4,0.3,0.7,0.7,1.3,1.2c-1.6,1.4-3,2.7-4.6,4c-9.1,8-18.3,16-27.4,24c-0.6,0.6-1.3,1.5-1.3,2.3c-0.1,11.9,0,23.8,0,35.7
		c0,0.1,0.1,0.3,0.2,0.7c24.6-9.1,40.6-26.7,51.3-50.6c0.3,0.9,0.4,1.1,0.4,1.4c0.6,19.3-1.8,38.1-10.2,55.7
		c-12.2,25.6-32.3,41.9-59.6,48.4c-34.2,8.3-67.5,5.1-98.5-12.2c-25.7-14.4-42.2-36.2-47.3-65.6c-5.2-29.5,2.8-55.1,23.9-76.4
		c4.6-4.7,10.1-8.6,15.2-12.9C107.2,139.3,107.5,139.3,107.8,139.2c1-0.8,2.1-1.7,3.2-2.5c16.1-10.4,33.7-17,52.3-21.3
		c0.7-0.2,1.4-0.4,2.1-0.5c-2.8-1.2-5.5-2.1-8.2-2.8c-6.1-1.6-12.3-3.4-18.5-4.5c-5.9-1.1-12-1.8-18-1.8c-9.5,0-17.3,6.3-18.8,14.5
		C100.6,127.4,102.4,133.9,107.8,139.2z M196.9,123.8c0,1.3,0,2.2,0,3.1c0,31.1,0,62.1,0.1,93.2c0,2.3-0.8,3.2-2.8,4.1
		c-14.5,5.8-29,11.7-43.4,17.6c-0.7,0.3-1.4,0.5-2.4,0.9c0-1.2,0-2.1,0-2.9c0-31.3,0-62.5-0.1-93.8c0-2,0.5-2.9,2.4-3.7
		c12.7-5,25.4-10.1,38.1-15.1c2.5-1,5-2.1,7.9-3.2c-10-3-19.6-5.9-29.1-8.8c-0.4-0.1-0.9-0.1-1.2,0.1c-1.9,1.1-3.8,2.3-5.8,3.4
		c-14.8,8.2-26.2,19.5-32.6,35.3c-5.8,14.4-7.1,29.4-5,44.6c3.5,25.7,17,43.8,41.5,52.9c21.2,7.8,42.8,7.2,64.4,1.2
		c1.5-0.4,1.4-1.3,1.4-2.5c0-11.3,0-22.6,0-34c0-1.5-0.4-2.5-1.6-3.6c-9.9-8.7-19.7-17.4-29.6-26.1c-0.6-0.5-1.3-0.9-2-1.4
		c1.2-1,1.8-1.6,2.4-2.2c9.7-8.6,19.5-17.2,29.3-25.8c1.1-0.9,1.5-1.9,1.5-3.4c-0.1-7.4,0-14.8,0-22.1c0-0.9,0-1.7,0-2.8
		C218.7,129,207.9,126.7,196.9,123.8z"/>
</g>
</svg>
