<?xml version="1.0" encoding="utf-8"?>
<!-- Generator: Adobe Illustrator 22.0.0, SVG Export Plug-In . SVG Version: 6.00 Build 0)  -->
<svg version="1.1" id="Layer_1" xmlns="http://www.w3.org/2000/svg" xmlns:xlink="http://www.w3.org/1999/xlink" x="0px" y="0px"
	 viewBox="0 0 350 350" style="enable-background:new 0 0 350 350;" xml:space="preserve">
<style type="text/css">
	.st0{fill:#FFFFFF;}
</style>
<g>
	<path class="st0" d="M306.6,172.1c0-16.2-13-29.4-29-29.4c-7.6,0-14.5,2.9-19.7,7.8c-19-13.3-44.6-22.2-73.2-23.8l12.8-42.9
		l39.3,7.9c1.3,13.3,12.4,23.7,26,23.7c0.1,0,0.1,0,0.1,0c0.1,0,0.1,0,0.1,0c14.4,0,26.1-11.8,26.1-26.4S277.4,62.5,263,62.5
		c-0.1,0-0.1,0-0.1,0h-0.1c-10.1,0-18.7,5.7-23.2,14.2l-52.6-10.6l-18,60.4l-1.5,0.1c-29.5,1.3-56,10.2-75.4,23.9
		c-5.2-4.9-12.1-7.8-19.7-7.8c-16,0-29,13.2-29,29.4c0,11.5,6.4,21.4,15.9,26.3c-0.5,2.9-0.7,5.7-0.7,8.7
		c0,44.4,52.2,80.5,116.4,80.5s116.4-36.1,116.4-80.6c0-2.9-0.2-5.8-0.6-8.7C300.1,193.4,306.6,183.5,306.6,172.1z M63.5,183.8
		c-3.9-2.6-6.4-7.1-6.4-12.2c0-8.1,6.5-14.7,14.5-14.7c3.3,0,6.3,1.1,8.8,3C72.5,166.9,66.6,175,63.5,183.8z M253.1,88.9
		c0-5.4,4.4-9.9,9.7-9.9c5.3,0,9.7,4.4,9.7,9.9c0,5.4-4.4,9.9-9.7,9.9C257.5,98.7,253.1,94.3,253.1,88.9z M117.8,194
		c0-10.3,8.3-18.6,18.6-18.6c10.3,0,18.6,8.3,18.6,18.6c0,10.3-8.3,18.6-18.6,18.6C126.2,212.6,117.8,204.3,117.8,194z M175,259.4
		c-27.9-0.1-44.6-16.7-45.3-17.4l7.4-7.3c0.1,0.1,13.9,14.2,37.9,14.3c23.6-0.1,37.6-14.2,37.8-14.3l7.4,7.3
		C219.5,242.7,202.9,259.3,175,259.4z M213.9,212.6c-10.3,0-18.6-8.3-18.6-18.6c0-10.3,8.3-18.6,18.6-18.6s18.6,8.3,18.6,18.6
		C232.5,204.3,224.1,212.6,213.9,212.6z M286.6,184.1c-3.2-9-9.1-17.2-17.2-24.3c2.5-1.9,5.6-3.1,8.9-3.1c8.1,0,14.7,6.7,14.7,15
		C293.1,176.9,290.5,181.4,286.6,184.1z"/>
</g>
</svg>
