<?xml version="1.0" encoding="utf-8"?>
<!-- Generator: Adobe Illustrator 22.0.0, SVG Export Plug-In . SVG Version: 6.00 Build 0)  -->
<svg version="1.1" id="Layer_1" xmlns="http://www.w3.org/2000/svg" xmlns:xlink="http://www.w3.org/1999/xlink" x="0px" y="0px"
	 viewBox="0 0 350 350" style="enable-background:new 0 0 350 350;" xml:space="preserve">
<style type="text/css">
	.st0{fill:#FFFFFF;}
</style>
<g>
	<path class="st0" d="M245,100.2c0-12.1,0-24.2,0-36.2c0-1.7-0.1-3.3-0.4-5c-2.4-15.8-17.3-26.8-33.1-24.5
		c-14.5,2.1-25.3,14.4-25.3,29.1c0,24.5,0,49,0,73.5c0,1.9,0.2,3.7,0.5,5.6c3.4,17.5,21.8,28,38.5,22.1c11.9-4.2,19.7-15.3,19.7-28
		C245,124.5,245,112.3,245,100.2z M105.2,166.2c12.3,0,24.6,0,36.9,0c2.3,0,4.6-0.3,6.9-0.8c14.5-3.8,23.7-17,22.1-31.8
		c-0.7-6.2-3.2-11.7-7.4-16.3c-6-6.5-13.5-9.7-22.3-9.7c-24.1,0-48.2,0-72.3,0c-2,0-3.9,0.2-5.9,0.5c-15.5,2.7-26.3,18-23.7,33.6
		c2.4,14.3,14.6,24.6,29.2,24.6C80.9,166.2,93.1,166.2,105.2,166.2z M171.3,247.2c0-12.1,0-24.3,0-36.4c0-2-0.2-4-0.6-6
		c-3-15.9-19.3-26.5-35-22.9c-13.8,3.2-23.1,14.9-23.1,29.1c0,24.2,0,48.4,0,72.6c0,1.7,0.1,3.3,0.4,5c2.5,16,17.7,27,33.7,24.5
		c14.2-2.3,24.7-14.6,24.7-28.9C171.3,271.8,171.3,259.5,171.3,247.2z M252.3,181.2c-12.2,0-24.4,0-36.6,0c-2.7,0-5.4,0.4-8,1.1
		c-16.3,4.4-25.5,22.4-19.7,38.2c4.4,11.8,15.3,19.5,27.9,19.5c24.2,0,48.4,0,72.6,0c1.9,0,3.9-0.2,5.8-0.5
		c15.4-2.7,26.1-17.5,23.8-33c-2.1-14.6-14.4-25.2-29.2-25.2C276.7,181.2,264.5,181.2,252.3,181.2z M171.3,76.7c0-4.5,0-9,0-13.4
		c0-1.6-0.1-3.3-0.4-4.9c-2.7-15.7-17.9-26.5-33.7-23.9c-13.8,2.3-24.2,14.1-24.6,28.1c-0.2,7.2,1.9,13.6,6.4,19.2
		c5.7,7,13.1,10.9,22.1,11c9.7,0.2,19.5,0,29.2,0.1c0.8,0,1-0.3,1-1C171.3,86.8,171.3,81.7,171.3,76.7z M275.8,166.2
		c4.4,0,8.9,0,13.3,0c1.5,0,3-0.1,4.5-0.3c16-2.5,27.1-17.8,24.4-33.7c-3-17.9-21.1-28.8-38.3-23.1c-11.6,3.8-19.9,15.1-20,27
		c0,9.8,0,19.5,0,29.3c0,0.7,0.2,0.9,0.9,0.9C265.7,166.2,270.7,166.2,275.8,166.2z M97.9,197.2c0-5,0-10,0-15c0-0.8-0.1-1-1-1
		c-9.6,0-19.1,0-28.7,0c-2,0-4,0.2-6,0.7c-12.7,2.9-21.8,13.3-22.9,26.3c-0.7,9,2.2,16.9,8.6,23.2c7.5,7.3,16.5,9.9,26.8,7.9
		c13.1-2.6,23.1-14.9,23.1-28.2C97.9,206.4,97.9,201.8,97.9,197.2z M186.3,270.8c0,4.4,0,8.9,0,13.3c0,1.7,0.1,3.3,0.4,5
		c2.8,15.8,17.8,26.4,33.6,23.9c13.7-2.1,24.2-14.1,24.6-27.9c0.2-7.2-1.9-13.7-6.4-19.3c-5.6-6.9-13-10.8-21.9-11
		c-9.8-0.2-19.7,0-29.5-0.1c-0.7,0-0.8,0.2-0.8,0.9C186.3,260.6,186.3,265.7,186.3,270.8z"/>
	<path class="st0" d="M245,100.2c0,12.1,0,24.3,0,36.4c0,12.7-7.8,23.7-19.7,28c-16.7,6-35.1-4.6-38.5-22.1
		c-0.4-1.9-0.5-3.7-0.5-5.6c0-24.5,0-49,0-73.5c0-14.6,10.8-27,25.3-29.1c15.8-2.2,30.7,8.8,33.1,24.5c0.2,1.7,0.4,3.3,0.4,5
		C245,76,245,88.1,245,100.2z"/>
	<path class="st0" d="M105.2,166.2c-12.2,0-24.3,0-36.5,0c-14.6,0-26.8-10.3-29.2-24.6c-2.6-15.6,8.1-30.8,23.7-33.6
		c1.9-0.3,3.9-0.5,5.9-0.5c24.1,0,48.2,0,72.3,0c8.8,0,16.3,3.2,22.3,9.7c4.2,4.6,6.7,10.1,7.4,16.3c1.6,14.8-7.6,28-22.1,31.8
		c-2.3,0.6-4.6,0.8-6.9,0.8C129.8,166.2,117.5,166.2,105.2,166.2z"/>
	<path class="st0" d="M171.3,247.2c0,12.3,0,24.5,0,36.8c0,14.3-10.5,26.7-24.7,28.9c-16,2.6-31.1-8.4-33.7-24.5
		c-0.3-1.7-0.4-3.3-0.4-5c0-24.2,0-48.4,0-72.6c0-14.1,9.4-25.9,23.1-29.1c15.7-3.6,32,7.1,35,22.9c0.4,2,0.6,4,0.6,6
		C171.3,223,171.3,235.1,171.3,247.2z"/>
	<path class="st0" d="M252.3,181.2c12.2,0,24.4,0,36.6,0c14.7,0,27,10.6,29.2,25.2c2.3,15.5-8.4,30.3-23.8,33
		c-1.9,0.3-3.8,0.5-5.8,0.5c-24.2,0-48.4,0-72.6,0c-12.6,0-23.6-7.6-27.9-19.5c-5.8-15.8,3.5-33.8,19.7-38.2c2.6-0.7,5.3-1.1,8-1.1
		C227.9,181.2,240.1,181.2,252.3,181.2z"/>
	<path class="st0" d="M171.3,76.7c0,5,0,10.1,0,15.1c0,0.7-0.1,1-1,1c-9.7,0-19.5,0.1-29.2-0.1c-9-0.2-16.5-4-22.1-11
		c-4.5-5.6-6.6-12-6.4-19.2c0.4-14,10.8-25.8,24.6-28.1c15.7-2.6,31,8.2,33.7,23.9c0.3,1.6,0.4,3.2,0.4,4.9
		C171.3,67.7,171.3,72.2,171.3,76.7z"/>
	<path class="st0" d="M275.8,166.2c-5.1,0-10.1,0-15.2,0c-0.7,0-0.9-0.2-0.9-0.9c0-9.8,0-19.5,0-29.3c0-11.9,8.4-23.2,20-27
		c17.2-5.7,35.4,5.2,38.3,23.1c2.7,16-8.4,31.3-24.4,33.7c-1.5,0.2-3,0.3-4.5,0.3C284.7,166.2,280.2,166.2,275.8,166.2z"/>
	<path class="st0" d="M97.9,197.2c0,4.6,0,9.2,0,13.8c0,13.3-10,25.6-23.1,28.2c-10.3,2-19.3-0.5-26.8-7.9
		c-6.4-6.3-9.4-14.1-8.6-23.2c1.1-13,10.2-23.4,22.9-26.3c2-0.5,4-0.7,6-0.7c9.6,0,19.1,0,28.7,0c0.8,0,1,0.2,1,1
		C97.9,187.2,97.9,192.2,97.9,197.2z"/>
	<path class="st0" d="M186.3,270.8c0-5.1,0-10.2,0-15.3c0-0.7,0.1-0.9,0.8-0.9c9.8,0,19.7-0.2,29.5,0.1c8.9,0.2,16.3,4.1,21.9,11
		c4.5,5.6,6.7,12.1,6.4,19.3c-0.4,13.9-11,25.8-24.6,27.9c-15.9,2.5-30.8-8.1-33.6-23.9c-0.3-1.6-0.4-3.3-0.4-5
		C186.3,279.7,186.3,275.2,186.3,270.8z"/>
</g>
</svg>
