<?xml version="1.0" encoding="utf-8"?>
<!-- Generator: Adobe Illustrator 22.0.0, SVG Export Plug-In . SVG Version: 6.00 Build 0)  -->
<svg version="1.1" id="Capa_1" xmlns="http://www.w3.org/2000/svg" xmlns:xlink="http://www.w3.org/1999/xlink" x="0px" y="0px"
	 viewBox="0 0 350 350" style="enable-background:new 0 0 350 350;" xml:space="preserve">
<style type="text/css">
	.st0{fill:#FFFFFF;}
</style>
<g>
	<g>
		<path class="st0" d="M287.6,162.2c-4,0-7.7,0.8-11.3,1.9c-4-31.3-31.5-55.6-64.9-55.6c-8.2,0-15.9,1.5-23.1,4.2v122.6h99.3
			c20.2,0,36.6-16.4,36.6-36.6C324.2,178.6,307.8,162.2,287.6,162.2z"/>
		<path class="st0" d="M175,114.5c-4.8,0-8.6,3.9-8.6,8.6v103.2c0,4.7,3.8,8.6,8.6,8.6c4.8,0,8.6-3.9,8.6-8.6V123.1
			C183.5,118.3,179.7,114.5,175,114.5z"/>
		<path class="st0" d="M152.8,128.3c-4.8,0-8.6,3.9-8.6,8.6v89.3c0,4.7,3.9,8.6,8.6,8.6c4.7,0,8.6-3.9,8.6-8.6v-89.3
			C161.4,132.2,157.5,128.3,152.8,128.3z"/>
		<path class="st0" d="M130.6,122.5c-4.8,0-8.6,3.9-8.6,8.6v95.1c0,4.7,3.8,8.6,8.6,8.6c4.8,0,8.6-3.9,8.6-8.6v-95.1
			C139.2,126.4,135.3,122.5,130.6,122.5z"/>
		<path class="st0" d="M108.4,135.2c-4.8,0-8.6,3.9-8.6,8.6v82.4c0,4.7,3.8,8.6,8.6,8.6c4.8,0,8.6-3.9,8.6-8.6v-82.4
			C117,139.1,113.1,135.2,108.4,135.2z"/>
		<path class="st0" d="M86.2,166.1c-4.7,0-8.6,3.8-8.6,8.6v51.6c0,4.7,3.9,8.6,8.6,8.6c4.8,0,8.6-3.9,8.6-8.6v-51.6
			C94.8,169.9,91,166.1,86.2,166.1z"/>
		<path class="st0" d="M64,166.1c-4.8,0-8.6,3.8-8.6,8.6v51.6c0,4.7,3.8,8.6,8.6,8.6c4.7,0,8.6-3.9,8.6-8.6v-51.6
			C72.6,169.9,68.8,166.1,64,166.1z"/>
		<path class="st0" d="M41.8,178.4c-4.8,0-8.6,3.8-8.6,8.6v39.2c0,4.7,3.8,8.6,8.6,8.6s8.6-3.9,8.6-8.6V187
			C50.4,182.3,46.6,178.4,41.8,178.4z"/>
	</g>
</g>
</svg>
