<?xml version="1.0" encoding="utf-8"?>
<!-- Generator: Adobe Illustrator 22.0.0, SVG Export Plug-In . SVG Version: 6.00 Build 0)  -->
<svg version="1.1" id="Layer_1" xmlns="http://www.w3.org/2000/svg" xmlns:xlink="http://www.w3.org/1999/xlink" x="0px" y="0px"
	 viewBox="0 0 350 350" style="enable-background:new 0 0 350 350;" xml:space="preserve">
<style type="text/css">
	.st0{fill:#FFFFFF;}
</style>
<path class="st0" d="M175,54.6L175,54.6c-66.5,0-120.4,53.9-120.4,120.4c0,66.5,53.9,120.4,120.4,120.4
	c66.5,0,120.4-53.9,120.4-120.4C295.4,108.5,241.5,54.6,175,54.6z M230.2,228.2c-2.2,3.5-6.8,4.7-10.3,2.5
	c-28.3-17.3-63.8-21.2-105.7-11.6c-4,0.9-8.1-1.6-9-5.6c-0.9-4,1.6-8.1,5.6-9c45.9-10.5,85.2-6,116.9,13.4
	C231.3,220.1,232.4,224.7,230.2,228.2z M244.9,195.5L244.9,195.5c-2.7,4.4-8.5,5.8-12.9,3.1c-32.4-19.9-81.7-25.7-120-14
	c-5,1.5-10.2-1.3-11.7-6.3c-1.5-5,1.3-10.2,6.3-11.7c43.7-13.3,98.1-6.8,135.2,16C246.3,185.3,247.7,191.1,244.9,195.5z
	 M246.2,161.3L246.2,161.3c-38.8-23-102.8-25.2-139.9-13.9c-5.9,1.8-12.2-1.6-14-7.5c-1.8-6,1.6-12.2,7.5-14
	C142.3,113,213,115.4,257.7,142c5.4,3.2,7.1,10.1,3.9,15.4C258.5,162.7,251.5,164.5,246.2,161.3z"/>
</svg>
