<?xml version="1.0" encoding="utf-8"?>
<!-- Generator: Adobe Illustrator 22.0.0, SVG Export Plug-In . SVG Version: 6.00 Build 0)  -->
<svg version="1.1" id="Layer_1" xmlns="http://www.w3.org/2000/svg" xmlns:xlink="http://www.w3.org/1999/xlink" x="0px" y="0px"
	 viewBox="0 0 350 350" style="enable-background:new 0 0 350 350;" xml:space="preserve">
<style type="text/css">
	.st0{fill:#FFFFFF;}
</style>
<path class="st0" d="M246,275.2v-65.3h21.7v86.9H72.2v-86.9h21.7v65.3H246z"/>
<path class="st0" d="M117.7,203.7l106.3,22.2l4.5-21.4l-106.3-22.2L117.7,203.7z M131.8,153.1l98.5,45.9l9-19.7l-98.5-46.1
	C140.8,133.1,131.8,153.1,131.8,153.1z M159.1,104.7l83.6,69.5l13.8-16.6l-83.6-69.5C172.9,88.1,159.1,104.7,159.1,104.7z
	 M213.1,53.2l-17.4,12.9l64.7,87.2l17.4-12.9L213.1,53.2z M115.5,253.2h108.6v-21.7H115.5V253.2z"/>
</svg>
