<?xml version="1.0" encoding="utf-8"?>
<!-- Generator: Adobe Illustrator 22.0.0, SVG Export Plug-In . SVG Version: 6.00 Build 0)  -->
<svg version="1.1"
	 id="svg3626" xmlns:cc="http://creativecommons.org/ns#" xmlns:dc="http://purl.org/dc/elements/1.1/" xmlns:rdf="http://www.w3.org/1999/02/22-rdf-syntax-ns#" xmlns:svg="http://www.w3.org/2000/svg"
	 xmlns="http://www.w3.org/2000/svg" xmlns:xlink="http://www.w3.org/1999/xlink" x="0px" y="0px" viewBox="0 0 350 350"
	 style="enable-background:new 0 0 350 350;" xml:space="preserve">
<style type="text/css">
	.st0{fill:#FFFFFF;}
</style>
<g id="layer1" transform="translate(-539.17946,-568.85777)">
	<path id="path3611" class="st0" d="M665.1,861c104.1,0,161-86.2,161-161c0-2.4,0-4.9-0.2-7.3c11.1-8,20.7-18,28.2-29.3
		c-10.1,4.5-21.1,7.5-32.5,8.9c11.7-7,20.7-18.1,24.9-31.3c-10.9,6.5-23,11.2-35.9,13.7c-10.3-11-25-17.9-41.3-17.9
		c-31.3,0-56.6,25.3-56.6,56.6c0,4.4,0.5,8.8,1.5,12.9c-47-2.4-88.7-24.9-116.7-59.1c-4.9,8.4-7.7,18.1-7.7,28.4
		c0,19.6,10,37,25.2,47.1c-9.3-0.3-18-2.8-25.6-7.1c0,0.2,0,0.5,0,0.7c0,27.4,19.5,50.3,45.4,55.5c-4.8,1.3-9.8,2-14.9,2
		c-3.6,0-7.2-0.4-10.6-1c7.2,22.5,28.1,38.9,52.9,39.3c-19.4,15.2-43.8,24.2-70.3,24.2c-4.6,0-9.1-0.3-13.5-0.8
		C603.4,851.6,633.1,861,665.1,861"/>
</g>
</svg>
