<?xml version="1.0" encoding="utf-8"?>
<!-- Generator: Adobe Illustrator 22.0.0, SVG Export Plug-In . SVG Version: 6.00 Build 0)  -->
<svg version="1.1" id="Layer_1" xmlns="http://www.w3.org/2000/svg" xmlns:xlink="http://www.w3.org/1999/xlink" x="0px" y="0px"
	 viewBox="0 0 350 350" style="enable-background:new 0 0 350 350;" xml:space="preserve">
<style type="text/css">
	.st0{fill:#FFFFFF;}
</style>
<path class="st0" d="M283.6,44H72.4C57.8,44,46,55.8,46,70.4v211.2c0,14.6,11.8,26.4,26.4,26.4h211.2c14.6,0,26.4-11.8,26.4-26.4
	V70.4C310,55.8,298.2,44,283.6,44z M268.1,131.7c-0.9,18.6-13.8,44-38.9,76.3c-25.9,33.7-47.9,50.6-65.8,50.6
	c-11.1,0-20.5-10.3-28.2-30.8c-5.1-18.8-10.3-37.6-15.4-56.5c-5.7-20.5-11.8-30.8-18.4-30.8c-1.4,0-6.4,3-15,9l-9-11.6
	c9.4-8.3,18.7-16.5,27.8-24.8c12.6-10.8,22-16.6,28.3-17.1c14.8-1.4,24,8.7,27.4,30.4c3.7,23.4,6.3,38,7.7,43.7
	c4.3,19.4,9,29.2,14.1,29.2c4,0,10-6.3,18-18.9c8-12.6,12.3-22.2,12.8-28.8c1.1-10.9-3.1-16.3-12.8-16.3c-4.6,0-9.3,1.1-14.1,3.1
	c9.4-30.7,27.3-45.6,53.7-44.8C260,94.1,269.3,106.8,268.1,131.7z"/>
</svg>
