<?xml version="1.0" encoding="utf-8"?>
<!-- Generator: Adobe Illustrator 22.0.0, SVG Export Plug-In . SVG Version: 6.00 Build 0)  -->
<svg version="1.1" id="Layer_1" xmlns="http://www.w3.org/2000/svg" xmlns:xlink="http://www.w3.org/1999/xlink" x="0px" y="0px"
	 viewBox="0 0 350 350" style="enable-background:new 0 0 350 350;" xml:space="preserve">
<style type="text/css">
	.st0{fill:#FFFFFF;}
</style>
<path class="st0" d="M319.7,86.5c0,1-0.3,2-1,2.9c-0.7,0.8-1.3,1.3-2.1,1.3c-6.3,0.6-11.6,2.6-15.6,6.1c-4,3.5-8.2,10.1-12.5,19.9
	l-65.7,148c-0.4,1.4-1.6,2.1-3.6,2.1c-1.6,0-2.7-0.7-3.6-2.1l-36.8-77l-42.4,77c-0.9,1.4-2.1,2.1-3.6,2.1c-1.9,0-3.1-0.7-3.7-2.1
	l-64.5-148c-4-9.2-8.3-15.6-12.8-19.2c-4.5-3.6-10.7-5.9-18.7-6.8c-0.7,0-1.3-0.4-1.9-1.1c-0.6-0.7-0.9-1.6-0.9-2.5
	c0-2.4,0.7-3.6,2.1-3.6c5.8,0,11.8,0.3,18,0.8c5.8,0.5,11.3,0.8,16.5,0.8c5.2,0,11.4-0.3,18.6-0.8c7.5-0.5,14.1-0.8,19.8-0.8
	c1.4,0,2.1,1.2,2.1,3.6c0,2.4-0.4,3.6-1.3,3.6c-5.8,0.4-10.3,1.9-13.6,4.4c-3.3,2.5-5,5.8-5,9.8c0,2.1,0.7,4.6,2.1,7.7l53.3,120.4
	l30.3-57.2l-28.2-59.1c-5.1-10.5-9.2-17.4-12.5-20.4c-3.3-3-8.2-4.9-14.8-5.6c-0.6,0-1.2-0.4-1.7-1.1c-0.6-0.7-0.8-1.6-0.8-2.5
	c0-2.4,0.6-3.6,1.8-3.6c5.8,0,11,0.3,15.8,0.8c4.6,0.5,9.6,0.8,14.8,0.8c5.1,0,10.6-0.3,16.3-0.8c5.9-0.5,11.8-0.8,17.5-0.8
	c1.4,0,2.1,1.2,2.1,3.6c0,2.4-0.4,3.6-1.3,3.6c-11.5,0.8-17.3,4-17.3,9.8c0,2.6,1.3,6.6,4,12l18.7,37.9l18.6-34.6
	c2.6-4.9,3.9-9,3.9-12.4c0-7.9-5.8-12.1-17.3-12.6c-1,0-1.6-1.2-1.6-3.6c0-0.9,0.3-1.7,0.8-2.4c0.5-0.8,1-1.2,1.6-1.2
	c4.1,0,9.2,0.3,15.2,0.8c5.8,0.5,10.5,0.8,14.2,0.8c2.6,0,6.6-0.2,11.7-0.7c6.5-0.6,12-0.9,16.4-0.9c1,0,1.5,1,1.5,3.1
	c0,2.7-0.9,4.1-2.8,4.1c-6.7,0.7-12.1,2.5-16.2,5.5c-4.1,3-9.2,9.8-15.2,20.5l-24.7,45.7l33.5,68.2l49.5-115
	c1.7-4.2,2.6-8.1,2.6-11.6c0-8.4-5.8-12.9-17.3-13.4c-1,0-1.6-1.2-1.6-3.6c0-2.4,0.8-3.6,2.3-3.6c4.2,0,9.2,0.3,14.9,0.8
	c5.3,0.5,9.8,0.8,13.4,0.8c3.8,0,8.2-0.3,13.1-0.8c5.2-0.5,9.8-0.8,13.9-0.8C319.1,83.4,319.7,84.4,319.7,86.5z"/>
</svg>
