<?xml version="1.0" encoding="utf-8"?>
<!-- Generator: Adobe Illustrator 22.0.0, SVG Export Plug-In . SVG Version: 6.00 Build 0)  -->
<svg version="1.1"
	 id="Слой_1" inkscape:version="0.91 r13725" sodipodi:docname="YouTube_social_white_square_(2017).svg" xmlns:cc="http://creativecommons.org/ns#" xmlns:dc="http://purl.org/dc/elements/1.1/" xmlns:inkscape="http://www.inkscape.org/namespaces/inkscape" xmlns:rdf="http://www.w3.org/1999/02/22-rdf-syntax-ns#" xmlns:sodipodi="http://sodipodi.sourceforge.net/DTD/sodipodi-0.dtd" xmlns:svg="http://www.w3.org/2000/svg"
	 xmlns="http://www.w3.org/2000/svg" xmlns:xlink="http://www.w3.org/1999/xlink" x="0px" y="0px" viewBox="0 0 350 350"
	 style="enable-background:new 0 0 350 350;" xml:space="preserve">
<style type="text/css">
	.st0{fill:#FFFFFF;}
</style>
<path id="path4156" class="st0" d="M174.9,104.2c0,0-63.2,0-79.1,4.1c-8.5,2.4-15.5,9.4-17.9,18c-4.1,15.9-4.1,48.7-4.1,48.7
	s0,33,4.1,48.6c2.4,8.6,9.2,15.5,17.9,17.9c16,4.2,79.1,4.2,79.1,4.2s63.3,0,79.2-4.1c8.6-2.4,15.5-9.1,17.7-17.9
	c4.2-15.7,4.2-48.6,4.2-48.6s0.1-33-4.2-48.9c-2.2-8.6-9.1-15.5-17.7-17.7C238.3,104.2,174.9,104.2,174.9,104.2z M154.8,144.7
	l52.6,30.4l-52.6,30.2V144.7z"/>
</svg>
