<?xml version="1.0" encoding="utf-8"?>
<!-- Generator: Adobe Illustrator 22.0.0, SVG Export Plug-In . SVG Version: 6.00 Build 0)  -->
<svg version="1.1" id="Layer_1" xmlns="http://www.w3.org/2000/svg" xmlns:xlink="http://www.w3.org/1999/xlink" x="0px" y="0px"
	 viewBox="0 0 350 350" style="enable-background:new 0 0 350 350;" xml:space="preserve">
<style type="text/css">
	.st0{fill:#FFFFFF;}
</style>
<g>
	<path class="st0" d="M102.4,219.7c-32,0-57.9-25.9-57.9-57.9c0-21.2,11.4-39.8,28.5-49.8c-21.2,9.6-36,31-36,55.8
		c0,33.8,27.4,61.2,61.2,61.2c32.3,0,58.7-25,61-56.6C154.3,199.3,130.7,219.7,102.4,219.7z"/>
	<circle class="st0" cx="114.6" cy="191" r="15.4"/>
	<circle class="st0" cx="74.3" cy="180.5" r="15.4"/>
	<circle class="st0" cx="80.6" cy="140.7" r="15.4"/>
	<circle class="st0" cx="99.1" cy="165.1" r="5.8"/>
	<g>
		<path class="st0" d="M155,206.1l6.3-33.2l-15.8-48.2H164l8.6,31.4l20.5-31.4h20.8l-35.2,47.9l-6.4,30.9L155,206.1z"/>
		<path class="st0" d="M228.8,139.8h-29.7l11.6-15.2h66.8c0,0-11.4,7.1-13.1,15.2h-18.2l-12.5,63.5l-17.4-1.3L228.8,139.8z"/>
		<path class="st0" d="M262.7,187.2c4.8,2.9,11.7,5.2,19.2,5.2c6.8,0,12.9-3.1,12.9-9.5c0-4.6-3.5-7.6-11-11.5
			c-8.7-4.7-16.9-11-16.9-21.6c0-16.4,14.4-26.5,32.1-26.5c9.9,0,15.7,2.2,19.2,4.1l-5.4,14.5c-2.7-1.4-8.5-3.7-15.2-3.6
			c-8.1,0-12.3,4.1-12.3,8.6c0,4.7,5,7.6,11.8,11.5c9.9,5.2,16.2,11.8,16.2,21.5c0,18.1-15,27.4-33.1,27.4
			c-11.4,0-19.5-2.9-23.3-5.8L262.7,187.2z"/>
	</g>
	<path class="st0" d="M105.3,228.6c3.5,0.2,94.1-21.3,183.5,0.4c0,0-52.2-18.9-116.3-13.1c0,0,37.5-9.8,119.6,4.9
		c0,0-81.8-25.8-158-3.5C122.9,220.1,101.8,228.4,105.3,228.6z"/>
</g>
</svg>
